<?xml version="1.0" encoding="utf-8"?>
<!-- Generator: Adobe Illustrator 14.0.0, SVG Export Plug-In . SVG Version: 6.00 Build 43363)  -->
<!DOCTYPE svg PUBLIC "-//W3C//DTD SVG 1.1//EN" "http://www.w3.org/Graphics/SVG/1.1/DTD/svg11.dtd">
<svg version="1.1" id="Layer_1" xmlns="http://www.w3.org/2000/svg" xmlns:xlink="http://www.w3.org/1999/xlink" x="0px" y="0px"
	 width="2000px" height="654px" viewBox="0 0 2000 654" enable-background="new 0 0 2000 654" xml:space="preserve">
<g>
	<g>
		<path fill="#FFC100" d="M380.235,7.764c12.103-2.175,24.421-0.956,36.637-1.298c8.356-0.364,16.542,1.605,24.592,3.609
			c14.117,3.416,27.233,11.897,35.066,24.261c5.624,8.755,8.129,19.014,10.201,29.089c2.141,10.907,1.537,22.258-1.286,32.994
			c-1.457,6.762-3.7,13.365-7.127,19.399c-11.157,19.514-26.812,36.284-44.936,49.513c-18.159,13.469-38.128,24.842-59.771,31.627
			c-8.983,2.277-18.17,5.123-27.529,3.928c-9.483-1.537-19.388-3.86-26.698-10.52c-17.282-15.347-16.007-46.291,2.357-60.283
			c8.789-7.082,20.254-9.245,31.149-10.668c22.69-0.694,46.291-2.243,66.761-13.047c8.197-4.156,17.635-9.666,18.648-19.845
			c-16.656-1.741-33.597-0.819-49.912,2.96c-13.48,3.381-26.436,8.505-38.971,14.437c-26.675,12.933-51.141,30.125-73.262,49.797
			c-39.893,35.168-73.444,77.964-95.781,126.362c-6.524,14.846-12.41,30.193-14.801,46.314c-2.015,13.195-2.266,26.731-0.194,39.938
			c0.797,5.567,3.495,11.237,8.471,14.197c3.586,1.901,7.708,2.595,11.726,2.812c7.822,0.251,15.78,0.285,23.407-1.719
			c9.37-2.493,18.307-6.375,26.937-10.759c12.114-39.221,35.635-74.947,67.012-101.428c15.404-12.683,32.333-24.045,51.448-30.261
			c18.592-5.761,38.698-10.064,57.984-5.157c3.905,0.773,7.434,2.709,10.679,4.975c2.516-0.718,5.032-1.503,7.651-1.811
			c17.738-1.07,35.521-0.728,53.259,0.091c4.44,0.387,9.347,1.286,12.41,4.838c3.814,4.258,5.237,10.463,3.802,15.974
			c-2.14,11.464-5.681,22.633-10.383,33.301c-9.848,23.601-18.99,47.487-28.634,71.179c-2.095,5.01-3.848,10.189-6.581,14.903
			c9.917-3.974,19.708-8.277,28.884-13.787c6.387-50.436,21.609-99.379,40.781-146.343c15.745-38.242,34.075-75.619,57.289-109.945
			c13.89-20.242,29.168-39.7,47.043-56.595c12.159-11.237,25.115-22.109,40.314-28.975c12.193-4.964,25.98-8.391,38.971-4.531
			c9.54,1.685,17.783,9.632,19.206,19.32c3.37,17.077,1.526,34.724-1.765,51.665c-3.279,14.937-6.888,29.908-12.694,44.094
			c5.431-8.789,13.32-15.916,22.542-20.562c5.442-2.458,11.306-3.916,17.18-4.963c15.324-1.435,31.343,5.123,40.622,17.578
			c6.137,7.469,8.414,17.26,9.245,26.675c-0.478,11.567-4.03,23.282-11.59,32.231c-10.098,12.888-26.39,20.8-42.796,20.083
			c-7.56-1.093-15.335-2.949-21.495-7.708c-14.812-9.871-23.054-28.656-20.288-46.223c-16.986,41.532-39.938,80.355-65.281,117.299
			c-18.842,27.586-39.29,54.022-59.999,80.208c-4.383,9.916-5.488,20.971-6.353,31.695c4.098-1.321,8.083-2.938,11.954-4.816
			c7.947-3.848,16.144-7.502,22.941-13.24c1.56-1.23,2.573-2.972,3.256-4.816c8.96-23.089,17.954-46.167,27.654-68.959
			c3.825-9.393,8.732-18.352,11.556-28.132c3.233-10.201,9.689-20.448,20.14-24.307c10.713-3.051,21.996-2.425,33.016-2.516
			c8.619-0.125,17.282,0.216,25.787,1.685c11.134,1.662,16.372,14.618,15.256,24.717c-3.666,19.4-12.182,37.365-18.956,55.786
			c-8.186,21.051-16.508,42.044-24.5,63.164c8.334-2.516,16.098-6.478,23.681-10.703c8.641-20.777,13.616-42.807,20.834-64.074
			c16.269-45.756,33.495-91.285,55.161-134.81c18.785-37.274,40.94-73.171,69.095-104.149c13.423-14.414,28.303-27.688,45.267-37.81
			c8.869-5.385,19.036-7.992,29.168-9.745c7.287-1.104,14.607,0.546,21.598,2.505c5.738,1.935,10.269,6.694,12.74,12.136
			c5.727,15.644,4.565,32.709,2.323,48.91c-6.273,40.326-22.292,78.374-41.35,114.203
			c-29.794,55.706-68.253,106.142-107.827,155.177c-6.091,8.823-7.833,19.662-10.668,29.783c12.295-2.71,23.168-9.347,33.54-16.235
			c3.131-18.25,8.857-36.147,18.136-52.234c10.372-17.715,23.681-33.95,40.269-46.188c14.118-10.953,30.057-19.651,47.191-24.854
			c16.758-4.828,34.201-8.323,51.722-7.014c9.268,0.717,18.5,2.357,27.335,5.283c15.769,5.988,28.462,18.762,35.453,33.995
			c5.954,14.437,6.819,30.193,7.4,45.608c5.556,0.318,11.18-0.045,16.531-1.64c-7.071-7.412-12.854-16.337-15.347-26.345
			c-2.004-7.901-3.962-16.189-2.004-24.307c2.198-14.846,9.666-29.385,22.315-37.889c8.618-6.536,19.525-9.188,30.125-10.064
			c13.583,0.136,28.292,4.667,36.717,15.984c6.375,7.765,8.219,18.034,9.393,27.746c6.342-7.73,8.744-18.819,17.703-24.193
			c20.083-7.172,41.749-4.303,62.595-3.814c6.057,0.091,12.42,2.733,15.04,8.55c2.596,7.002,3.347,14.789,1.548,22.087
			c-1.662,9.085-5.931,17.328-9.21,25.878c-11.715,29.077-22.986,58.325-34.109,87.619c7.548-3.028,14.652-7.001,21.825-10.827
			c13.97-34.701,28.964-68.982,42.865-103.717c3.449-8.311,5.886-17.544,12.557-23.988c5.465-5.511,13.765-5.397,20.972-6.057
			c16.758-0.296,33.585-0.433,50.276,1.15c8.63,0.956,13.913,9.085,16.485,16.633c8.208-5.954,17.396-10.61,27.222-13.241
			c12.887-3.438,26.344-6,39.71-4.189c8.061,1.628,16.474,3.12,23.476,7.719c9.165,5.897,16.872,14.379,20.982,24.534
			c3.609,10.498,5.943,22.007,2.824,32.948c-5.544,27.563-19.002,52.485-30.261,77.987c7.604-3.051,14.88-6.876,22.086-10.77
			c12.74-36.58,26.937-72.647,42.386-108.157c3.142-6.922,6.717-14.129,12.956-18.796c5.966-4.805,14.003-5.191,21.313-5.806
			c14.128-0.331,28.292-0.285,42.409,0.489c4.406,0.444,9.222,1.48,12.284,4.987c4.395,4.906,4.611,11.942,4.941,18.182
			c0.455,11.225-4.44,21.586-8.22,31.867c-9.563,24.99-19.81,49.707-29.1,74.799c-1.913,4.839-3.416,9.837-5.556,14.584
			c4.247-1.776,8.607-3.268,12.82-5.146c6.057-21.757,17.236-41.635,29.475-60.455c9.074-14.413,21.006-26.755,33.404-38.333
			c17.305-14.938,36.739-28.144,58.837-34.747c11.943-3.416,24.193-6.227,36.672-6.398c9.984-0.365,20.731,1.241,28.917,7.377
			c5.282-2.175,10.998-2.573,16.656-2.3c11.715-0.479,23.476-0.751,35.203-0.023c6.945,0.194,15.017-0.957,20.721,3.973
			c3.688,3.006,4.451,7.855,5.51,12.205c-2.038,9.131-3.997,18.295-7.002,27.153c-5.077,15.415-12.091,30.079-17.897,45.221
			c-3.085,7.651-5.202,15.654-8.436,23.237c-3.882,9.256-8.345,18.307-11.044,28.007c21.507-6.604,39.085-21.222,56.595-34.724
			c4.702-4.099,10.736-7.958,17.271-6.513c6.398,0.854,10.235,6.513,14.414,10.793c3.222,3.37,7.081,6.649,8.14,11.431
			c2.061,5.988-0.432,12.74-5.078,16.793c-19.514,17.544-40.144,33.904-62.162,48.204c-17.658,11.283-36.045,21.939-56.173,28.132
			c-10.792,2.835-21.882,5.875-33.142,5.078c-9.13-1.4-18.728-3.222-26.128-9.131c-5.784-4.098-9.746-10.167-12.648-16.519
			c-8.061,6.262-16.634,11.909-25.867,16.257c-9.859,4.634-20.539,7.275-31.251,9.006c-11.92,1.901-23.977-0.569-35.419-3.848
			c-10.85-3.928-19.685-12.102-25.878-21.7c-16.907,10.622-34.86,20.322-54.716,23.931c-12.831,2.915-26.481,2.277-38.902-2.095
			c-10.087-4.304-17.396-13.377-21.393-23.396c-16.758,10.406-34.405,20.038-53.794,24.409c-11.521,3.074-23.84,4.805-35.476,1.333
			c-12.637-2.174-23.259-11.692-27.654-23.612c-3.962-11.465-6.353-23.886-3.871-35.954c5.601-30.478,19.627-58.427,31.49-86.788
			c-16.109,13.708-28.531,30.99-40.553,48.227c-4.167,6.091-8.812,11.864-12.638,18.182c-11.738,19.514-18.854,41.487-31.502,60.488
			c-5.612,9.609-16.257,15.245-26.914,17.362c-13.412,3.621-27.313,1.105-40.906,0.285c-4.839-0.387-10.224-1.161-13.503-5.146
			c-2.789-2.926-3.826-6.91-4.645-10.735c-11.396,6.443-23.408,12.022-36.113,15.347c-8.619,2.083-17.305,4.702-26.254,4.383
			c-13.093-0.934-26.731-5.374-35.236-15.916c-5.955-6.501-7.81-15.381-9.166-23.806c-1.992-13.412,1.116-26.846,4.532-39.768
			c2.675-9.7,5.704-19.32,9.427-28.69c-10.782,13.355-24.079,24.968-39.586,32.47c-15.107,6.091-32.048,8.892-48.079,5.01
			c-17.374,25.798-41.384,47.634-70.188,59.862c-14.425,5.784-29.817,8.972-45.278,10.281c-11.191,1.15-22.577,0.581-33.529-2.049
			c-9.199-1.97-18.387-4.896-26.061-10.498c-8.8-5.84-15.267-14.459-20.424-23.533c-11.75,8.96-24.41,16.759-37.764,23.101
			c4.873,24.58,5.943,50.071,1.685,74.811c-2.983,15.825-7.036,31.604-14.186,46.109c-6.945,14.379-15.882,27.723-25.787,40.223
			c-12.011,15.062-27.028,27.894-44.242,36.637c-12.034,6.068-26.083,9.131-39.347,5.624c-11.533-3.518-19.776-14.299-22.053-25.901
			c-4.224-14.903-2.061-30.5-0.888-45.665c4.452-46.61,14.22-92.525,25.742-137.837c-11.647,6.546-23.897,12.193-36.853,15.631
			c-9.472,2.437-19.286,4.896-29.123,3.404c-8.311-1.514-17.043-3.108-23.874-8.436c-6.706-4.542-11.647-11.488-14.14-19.149
			c-15.574,10.93-32.868,19.833-51.506,24.102c-9.074,2.187-18.353,4.292-27.745,3.872c-8.527-1.127-17.533-2.881-24.239-8.688
			c-7.685-6.352-12.797-15.586-14.755-25.32c-24.58,16.372-51.824,30.318-81.539,33.7c-7.366,1.093-14.687-0.718-21.757-2.562
			c-11.442-3.006-20.812-12.114-24.876-23.123c-13.992,10.781-29.886,19.616-47.293,23.328c-9.563,2.38-19.571,3.723-29.373,2.129
			c-9.37-1.753-19.024-3.871-26.914-9.529c-6.763-4.28-11.943-10.61-15.734-17.601c-19.036,10.85-39.085,20.527-60.716,24.865
			c-19.525,4.85-40.075,2.801-59.316-2.368c-19.036-4.645-36.307-16.497-47.122-32.869c-7.184-10.247-10.771-22.417-13.366-34.508
			c-1.412-6.842-3.028-13.73-2.937-20.755c0.023-7.947,0.045-15.894,0-23.829c-0.308-10.417,2.265-20.629,4.428-30.75
			c5.841-27.21,16.235-53.316,29.658-77.657c17.18-30.944,38.732-59.271,62.196-85.707c18.773-20.674,39.221-39.835,61.057-57.255
			c34.531-27.232,72.283-51.073,113.793-66.089C343.553,15.187,361.791,10.679,380.235,7.764z M293.003,52.234
			c-38.937,20.345-74.435,46.906-106.142,77.236c-25.161,24.033-47.703,50.811-67.32,79.547
			c-24.603,36.466-43.638,77.634-49.479,121.545c-0.319,12.478-0.205,24.991-0.068,37.479c2.175,17.795,7.059,36.432,19.753,49.764
			c10.77,11.75,26.015,18.444,41.498,21.21c15.176,2.63,30.956,3.142,46.007-0.535c24.751-5.817,46.735-19.093,68.742-31.297
			c2.072,6.625,4.338,13.343,8.357,19.07c4.986,6.979,13.001,11.134,21.142,13.286c13.184,3.484,27.256,1.662,39.996-2.732
			c21.142-7.56,39.301-21.643,54.614-37.787c-0.968,9.962-1.742,20.8,3.29,29.886c4.941,8.778,15.632,12.171,25.172,12.205
			c12.728-0.091,25.195-3.677,36.887-8.516c21.825-8.915,41.68-21.894,60.784-35.567c1.844,12.353,2.402,26.037,10.759,36.09
			c6.512,7.901,17.818,9.006,27.312,7.697c30.147-3.245,56.697-19.89,79.865-38.447c1.025,8.743,1.537,17.988,6.046,25.81
			c3.563,6.443,10.554,10.189,17.51,11.863c10.44,2.3,21.404,0.899,31.491-2.391c22.474-6.865,42.216-20.003,61.82-32.572
			c-16.485,63.073-32.174,126.92-35.475,192.27c-0.011,10.804,0.148,23.464,8.562,31.468c5.396,5.373,13.491,3.278,20.276,3.393
			c15.313-4.02,28.77-13.275,40.246-23.954c13.377-12.831,24.159-28.155,33.108-44.322c9.598-17.431,15.358-36.842,17.578-56.572
			c2.858-24.603,0.546-49.581-5.055-73.638c22.633-8.766,42.83-22.69,61.365-38.185c3.541,13.161,9.734,26.436,21.017,34.679
			c11.84,8.493,26.823,10.986,41.1,11.1c17.806-0.421,35.897-2.88,52.257-10.304c28.576-12.603,51.585-35.657,67.41-62.275
			c17.51,5.738,37.662,5.18,53.771-4.315c19.013-10.884,32.846-28.599,44.208-46.94c9.677-4.349,19.878-7.651,28.907-13.32
			c-3.052,7.298-5.853,14.709-8.675,22.098c-6.649,18.285-13.901,36.387-19.195,55.126c-3.757,13.423-5.977,27.927-2.14,41.589
			c2.755,9.45,11.931,15.631,21.244,17.476c9.267,2.243,18.796,0.091,27.813-2.254c20.243-5.601,38.356-16.61,55.923-27.813
			c-1.082,8.926-1.309,18.08,0.604,26.914c13.069,0.41,26.231,3.302,39.278,0.899c6.546-1.298,13.332-3.985,17.669-9.268
			c12.342-17.942,19.321-38.811,30.011-57.676c5.271-9.609,12.285-18.091,18.42-27.13c14.733-20.846,30.284-42.216,52.349-55.855
			c4.975-3.153,11.066-2.846,16.712-2.88c0.273,6.102,0.968,12.455-1.332,18.295c-9.028,23.35-20.186,45.847-28.28,69.573
			c-2.79,8.379-5.567,16.861-6.41,25.708c-1.162,10.668,0.285,21.996,5.943,31.309c3.734,6.182,10.896,9.393,17.829,10.406
			c13.024,1.741,26.083-1.446,38.231-5.955c19.57-7.354,37.069-19.024,54.409-30.478c0.82,7.992,2.038,16.224,6.068,23.328
			c3.097,5.795,8.516,10.44,15.006,11.943c13.275,2.778,27.21,1.024,39.893-3.563c18.318-6.512,34.53-17.51,50.902-27.757
			c2.755,10.543,8.698,20.652,18.09,26.55c5.795,3.882,12.786,5.259,19.617,6.068c15.37,1.855,30.979-2.118,44.605-9.177
			c15.837-7.981,29.362-19.775,41.578-32.493c-1.127,9.666-2.072,20.3,3.279,28.975c4.657,8.55,14.687,12.33,23.954,12.911
			c14.721,0.672,29.134-3.836,42.478-9.7c37.013-16.998,69.745-42.011,99.812-69.209c-3.985-4.144-7.97-8.289-11.829-12.535
			c-11.26,8.47-22.133,17.499-33.916,25.252c-15.21,10.292-32.754,18.455-51.438,18.58c-3.609-15.893,3.245-31.399,9.598-45.596
			c4.907-10.361,7.719-21.518,12.113-32.094c8.312-20.915,18.455-41.43,22.189-63.824c-5.066-0.08-10.132,0.068-15.187-0.171
			c-13.458-0.558-26.915,0.239-40.383,0.148c-2.175,3.484-4.315,6.991-6.341,10.542c-4.543-7.229-11.181-14.117-20.049-15.278
			c-32.777-2.846-64.849,11.078-89.691,31.73c-15.677,13.207-30.113,28.314-40.564,46.063
			c-11.43,17.817-20.698,37.081-26.436,57.483c-11.271,6.216-23.897,9.791-36.569,11.806c-1.662-5.009-3.518-10.121-3.426-15.472
			c0.239-3.917,1.867-7.548,3.142-11.203c12.068-33.779,26.186-66.772,38.618-100.404c2.243-6.353,1.446-13.229,0.763-19.776
			c-14.675-0.125-29.351-1.252-44.015-0.319c-4.292,0.388-9.21-0.159-12.706,2.835c-4.338,3.688-6.307,9.233-8.664,14.231
			c-15.871,36.272-30.056,73.263-43.309,110.548c-15.666,9.791-33.164,18.979-52.166,18.819c0.353-8.026,1.104-16.212,4.394-23.635
			c9.177-21.324,20.3-41.92,26.869-64.269c1.616-5.817,3.312-11.669,3.643-17.726c0.398-11.168-3.62-22.759-12.067-30.296
			c-8.414-8.447-20.869-11.203-32.437-10.872c-12.056,0.512-24.261,2.652-35.202,7.913c-16.234,7.594-29.339,20.208-41.555,33.027
			c3.017-8.903,7.821-17.578,7.605-27.232c-0.012-4.759-2.289-9.074-5.135-12.729c-19.013-0.535-38.117-1.958-57.084,0.035
			c-2.88,0.285-4.258,3.222-5.488,5.454c-3.233,6.603-5.51,13.616-8.379,20.379c-13.855,34.405-28.713,68.389-42.5,102.818
			c-11.454,5.909-22.497,13.309-35.328,15.881c-3.928,0.649-8.777,1.902-11.806-1.548c-4.486-5.18-2.539-12.649-0.512-18.478
			c13.104-34.849,26.596-69.562,40.701-104.036c2.983-6.501,3.393-13.844,2.164-20.823c-17.602,0.057-35.419-2.584-52.873,0.774
			c-2.231,0.569-5.055,0.591-6.25,2.891c-4.577,6.786-7.366,15.006-13.867,20.345c-6.66,5.807-15.802,6.729-24.17,7.958
			c0.478-9.108,0.774-18.41-1.423-27.336c-1.696-6.979-6.193-13.4-12.717-16.622c-12.649-6.512-28.781-4.155-39.905,4.395
			c-7.787,5.795-12.489,14.892-14.664,24.182c-4.371,20.504,8.027,42.625,27.199,50.629c-7.502,6.466-14.983,13.98-24.979,16.224
			c-6.285,1.082-12.774,1.765-19.104,0.694c-4.27-0.819-8.834-2.755-11.055-6.694c-2.504-13.173-0.842-26.903-4.565-39.893
			c-4.736-17.442-19.286-32.186-37.149-35.863c-34.553-6.854-71.19,2.834-99.676,23.032c-31.434,21.723-52.94,57.05-58.188,94.848
			c-0.364,1.901-0.273,4.247-2.288,5.237c-13.423,9.404-27.859,18.637-44.413,21.005c-7.172,1.48-14.925-3.882-16.109-11.088
			c-0.421-3.313,0.99-6.467,1.719-9.632c2.903-11.055,4.998-22.827,11.977-32.22c36.375-44.834,71.634-90.932,100.074-141.322
			c16.315-29.26,30.957-59.737,40.235-92.013c5.544-19.628,9.074-40.132,7.434-60.568c-0.888-5.112-1.411-12.08-7.047-14.22
			c-13.753-4.042-28.372,0.558-40.178,7.844c-14.948,9.256-27.961,21.324-39.881,34.155
			c-27.313,29.875-48.455,64.781-66.545,100.837c-21.347,42.705-38.186,87.447-54.272,132.35
			c-7.377,21.358-12.341,43.525-20.857,64.507c-1.002,2.254-1.628,5.032-4.099,6.137c-12.068,7.229-25.092,13.833-39.324,15.04
			c-4.087,0.774-7.685-2.709-8.835-6.364c-1.617-5.75-0.262-11.863,1.844-17.305c10.03-26.299,20.436-52.45,30.546-78.716
			c4.053-10.667,8.504-21.267,10.884-32.47c0.82-3.631-0.25-7.274-2.425-10.201c-16.144-1.446-32.425-1.753-48.58-0.308
			c-3.131,0.08-5.863,1.879-7.935,4.088c-6.182,6.74-7.241,16.246-10.93,24.307c-13.559,29.612-24.921,60.158-37.069,90.351
			c-5.852,7.617-14.618,12.421-22.975,16.861c-9.745,4.554-19.628,10.508-30.762,10.076c-5.009-0.171-10.087-3.621-10.611-8.892
			c-0.888-12.387,1.799-24.683,4.976-36.58c0.922-3.313,1.56-6.888,3.882-9.563c45.301-56.595,88.632-115.762,118.426-182.193
			c11.066-25.001,21.04-50.846,25.081-78.033c1.799-12.717,2.516-25.708,0.569-38.447c-0.706-5.408-6.285-8.231-11.191-8.687
			c-6.854-0.513-13.947-0.433-20.436,2.072c-17.066,5.807-30.876,17.965-43.866,30.022c-17.237,16.781-32.219,35.771-45.517,55.775
			c-22.098,33.494-39.688,69.767-54.853,106.848c-19.081,47.146-34.553,96.283-39.563,147.094
			c-16.998,10.224-35.259,20.516-55.65,20.857c-1.526-6.888-3.598-14.413-0.603-21.21c12.774-30.386,24.329-61.274,37.092-91.661
			c3.768-9.108,6.876-18.58,7.969-28.417c-18.66-1.001-37.343-0.751-56.014-0.387c-1.992,3.449-3.95,6.933-5.875,10.417
			c-4.372-6.182-9.438-13.354-17.499-14.572c-18-2.607-36.477,0.74-53.225,7.514c-22.326,9.153-41.714,24.397-58.177,41.851
			c-22.064,23.772-38.276,52.884-47.145,84.067c-19.377,10.634-41.202,19.15-63.71,16.998c-7.935-0.956-16.531-2.368-22.61-8.026
			c-5.351-4.634-8.88-11.146-10.292-18.045c-3.894-17.977-3.074-36.706,0.729-54.614c7.366-34.337,24.204-65.794,43.513-94.803
			c18.455-27.597,40.451-52.758,64.951-75.141c22.827-20.687,47.76-39.244,75.141-53.464c28.656-14.846,60.728-24.796,93.289-23.146
			c6.66,0.456,14.049,0.581,19.514,4.976c3.119,2.333,3.597,6.546,3.973,10.144c0.33,10.531-5.738,20.504-14.345,26.265
			c-21.609,15.621-48.898,20.311-74.958,21.563c-11.328,0.206-23.681,0.866-32.948,8.209c-10.884,8.892-11.625,27.734-1.207,37.263
			c10.167,8.05,24.352,8.175,36.329,4.691c13.821-4.053,26.982-10.212,39.381-17.533c17.954-10.577,34.701-23.59,47.965-39.768
			c8.049-10.042,15.598-21.073,18.432-33.836c3.882-16.929,1.457-35.407-7.263-50.481c-8.721-14.038-25.912-19.582-41.544-20.994
			c-10.292-0.239-20.607-0.148-30.899-0.057C357.01,24.409,323.754,36.432,293.003,52.234z M749.78,122.229
			c-14.311,3.449-26.652,15.347-29.203,30.044c-2.687,16.679,10.292,34.337,27.165,36.296c22.77,1.947,44.163-21.598,38.686-44.128
			C783.013,128.639,765.343,118.096,749.78,122.229z"/>
	</g>
	<path fill="#FFC100" d="M915.978,115.113c7.753-12.239,16.588-24.022,27.825-33.29c-0.171,17.806-6.5,34.792-13.639,50.846
		c-17.886,40.656-41.225,78.579-65.122,115.91c-10.201,16.11-21.882,31.229-31.718,47.566
		c15.21-47.179,34.417-93.072,57.323-137.029C898.274,143.985,907.018,129.47,915.978,115.113z"/>
	<path fill="#FFC100" d="M664.313,111.652c7.48-10.918,14.709-22.52,26.003-29.954c0.33,8.425-1.287,16.816-4.053,24.74
		c-6.637,19.275-15.779,37.547-25.081,55.626c-24.17,46.269-53.327,89.657-82.347,132.965c1.446-11.055,5.066-21.666,9.062-32.026
		C607.536,209.904,632.629,158.638,664.313,111.652z"/>
	<g>
		<path fill="#FFC100" d="M1644.56,107.439c8.55-2.083,17.385,0,25.548,2.721c9.973,4.019,18.535,11.772,23.123,21.552
			c2.528,6.842,4.087,14.163,4.19,21.472c-1.218,9.233-3.062,18.876-8.584,26.618c-6.991,10.759-17.852,19.491-30.58,22.144
			c-17.396,5.203-37.024-3.051-47.236-17.681c-6.137-8.14-8.209-18.614-8.504-28.599c0.66-8.937,2.903-18.09,8.117-25.536
			C1618.306,118.472,1630.693,109.774,1644.56,107.439z M1645.698,122.126c-16.587,4.007-30.364,20.459-28.121,37.969
			c0.638,16.508,16.918,30.808,33.438,28.451c19.901-2.619,34.929-23.783,30.808-43.457
			C1679.75,128.616,1661.159,118.369,1645.698,122.126z"/>
	</g>
	<g>
		<path fill="#FFC100" d="M979.643,282.313c7.582-6.671,16.298-13.258,26.499-12.12c11.009,0.786-2.362,79.712-21.432,112.933
			c-6.466,10.896-13.662,22.269-25.172,28.406c-5.567,2.846-12.205,5.021-18.421,3.37c-6.09-4.19-7.992-11.988-8.333-18.968
			c-0.82-10.337,1.321-20.561,3.598-30.58c4.178-17.464,10.531-34.405,18.842-50.333
			C961.427,302.874,969.305,291.33,979.643,282.313z M959.673,340.775c-7.275,18.933-14.049,39.13-11.601,59.68
			c12.136-4.304,18.842-16.144,24.865-26.709c14.117-25.24,20.243-54.329,20.049-83.11
			C976.478,302.988,967.529,322.308,959.673,340.775z"/>
	</g>
	<g>
		<path fill="#FFC100" d="M1748.857,285.421c7.548-6.648,17.351-9.905,27.176-11.248c2.334,1.309,4.668,2.595,7.059,3.859
			c0.945,7.469,2.379,15.233,0.216,22.634c-2.675,9.563-5.727,19.036-9.336,28.292c-9.233,23.714-23.464,46.336-44.606,61.125
			c-7.002,4.952-15.586,9.95-24.455,7.435c-5.146-1.287-7.969-6.353-9.245-11.112c-2.505-9.483,0.638-19.287,4.383-27.996
			C1712.277,331.826,1725.324,303.967,1748.857,285.421z M1753.878,300.631c-16.679,14.8-26.697,35.191-36.17,54.978
			c-3.962,8.869-9.609,17.988-7.719,28.144c8.47-3.028,15.506-8.892,21.87-15.085c15.541-14.892,24.808-34.906,31.969-54.876
			c2.322-7.673,5.897-15.187,5.761-23.373C1763.669,292.65,1758.386,296.226,1753.878,300.631z"/>
	</g>
	<g>
		<path fill="#FFC100" d="M388.91,276.04c4.964-1.184,11.192-2.471,15.381,1.298c3.279,3.723,4.053,9.006,4.076,13.822
			c-0.08,10.645-5.237,20.242-8.231,30.227c-8.584,30.022-28.281,56.902-54.83,73.468c-6.626,4.11-16.371,5.043-22.303-0.74
			c-4.315-4.771-4.656-11.704-4.338-17.795c1.207-12.318,7.48-23.282,12.398-34.405c8.027-15.997,16.497-32.049,28.52-45.449
			C367.632,287.573,377.48,279.99,388.91,276.04z M375.191,301.815c-13.423,12.456-21.722,29.078-30.033,45.119
			c-3.53,7.628-7.287,15.166-10.19,23.066c-1.799,4.36-1.332,9.165-1.264,13.764c7.15-2.584,12.888-7.764,18.535-12.66
			c16.542-14.629,28.178-34.326,34.303-55.456c2.368-8.573,7.093-16.588,7.127-25.696
			C386.941,292.901,380.337,296.464,375.191,301.815z"/>
	</g>
	<path fill="#FFC100" d="M788.887,442.613c4.315,19.992,8.995,40.553,6.273,61.104c-2.163,14.937-7.479,29.213-13.753,42.875
		c-3.997,8.174-8.061,16.94-15.973,22.064C769.875,526.077,779.506,484.305,788.887,442.613z"/>
</g>
<g>
	<g>
		<path fill="#16167A" d="M293.003,52.234c30.751-15.802,64.006-27.825,98.628-30.876c10.292-0.091,20.607-0.183,30.899,0.057
			c15.632,1.412,32.823,6.956,41.544,20.994c8.721,15.074,11.146,33.552,7.263,50.481c-2.835,12.763-10.383,23.794-18.432,33.836
			c-13.263,16.178-30.01,29.191-47.965,39.768c-12.398,7.321-25.56,13.479-39.381,17.533c-11.977,3.484-26.163,3.359-36.329-4.691
			c-10.417-9.529-9.677-28.371,1.207-37.263c9.267-7.343,21.62-8.003,32.948-8.209c26.06-1.252,53.35-5.942,74.958-21.563
			c8.607-5.761,14.675-15.734,14.345-26.265c-0.376-3.598-0.854-7.811-3.973-10.144c-5.465-4.395-12.854-4.52-19.514-4.976
			c-32.561-1.65-64.633,8.3-93.289,23.146c-27.381,14.22-52.314,32.777-75.141,53.464c-24.5,22.383-46.496,47.544-64.951,75.141
			c-19.309,29.009-36.147,60.466-43.513,94.803c-3.802,17.908-4.622,36.637-0.729,54.614c1.412,6.899,4.941,13.411,10.292,18.045
			c6.079,5.658,14.675,7.07,22.61,8.026c22.508,2.152,44.333-6.364,63.71-16.998c8.869-31.183,25.081-60.295,47.145-84.067
			c16.463-17.453,35.851-32.698,58.177-41.851c16.748-6.774,35.225-10.122,53.225-7.514c8.061,1.218,13.127,8.39,17.499,14.572
			c1.924-3.484,3.882-6.968,5.875-10.417c18.672-0.364,37.354-0.615,56.014,0.387c-1.093,9.837-4.201,19.309-7.969,28.417
			c-12.763,30.386-24.319,61.274-37.092,91.661c-2.994,6.797-0.922,14.322,0.603,21.21c20.39-0.341,38.652-10.633,55.65-20.857
			c5.01-50.812,20.482-99.949,39.563-147.094c15.165-37.081,32.755-73.354,54.853-106.848
			c13.298-20.003,28.281-38.994,45.517-55.775c12.99-12.057,26.8-24.216,43.866-30.022c6.489-2.504,13.583-2.584,20.436-2.072
			c4.907,0.455,10.486,3.279,11.191,8.687c1.947,12.74,1.23,25.73-0.569,38.447c-4.041,27.187-14.015,53.031-25.081,78.033
			c-29.794,66.431-73.126,125.599-118.426,182.193c-2.323,2.676-2.96,6.25-3.882,9.563c-3.177,11.897-5.863,24.193-4.976,36.58
			c0.524,5.271,5.602,8.721,10.611,8.892c11.135,0.432,21.017-5.522,30.762-10.076c8.357-4.44,17.123-9.245,22.975-16.861
			c12.148-30.193,23.51-60.739,37.069-90.351c3.689-8.061,4.748-17.567,10.93-24.307c2.072-2.208,4.804-4.008,7.935-4.088
			c16.155-1.446,32.436-1.138,48.58,0.308c2.175,2.926,3.245,6.569,2.425,10.201c-2.38,11.204-6.831,21.803-10.884,32.47
			c-10.11,26.266-20.516,52.417-30.546,78.716c-2.106,5.442-3.461,11.556-1.844,17.305c1.15,3.655,4.748,7.139,8.835,6.364
			c14.231-1.207,27.256-7.81,39.324-15.04c2.471-1.104,3.096-3.882,4.099-6.137c8.516-20.982,13.48-43.149,20.857-64.507
			c16.087-44.903,32.926-89.646,54.272-132.35c18.091-36.057,39.232-70.963,66.545-100.837
			c11.92-12.831,24.933-24.899,39.881-34.155c11.806-7.286,26.424-11.886,40.178-7.844c5.636,2.141,6.159,9.108,7.047,14.22
			c1.64,20.436-1.89,40.94-7.434,60.568c-9.278,32.276-23.92,62.753-40.235,92.013c-28.439,50.39-63.699,96.488-100.074,141.322
			c-6.979,9.393-9.074,21.165-11.977,32.22c-0.729,3.165-2.14,6.318-1.719,9.632c1.184,7.207,8.938,12.569,16.109,11.088
			c16.554-2.368,30.99-11.601,44.413-21.005c2.015-0.991,1.924-3.336,2.288-5.237c5.249-37.798,26.755-73.125,58.188-94.848
			c28.485-20.197,65.123-29.886,99.676-23.032c17.863,3.677,32.413,18.421,37.149,35.863c3.723,12.99,2.061,26.72,4.565,39.893
			c2.22,3.939,6.785,5.875,11.055,6.694c6.33,1.07,12.82,0.387,19.104-0.694c9.996-2.243,17.476-9.757,24.979-16.224
			c-19.172-8.004-31.57-30.125-27.199-50.629c2.175-9.29,6.877-18.387,14.664-24.182c11.124-8.55,27.256-10.907,39.905-4.395
			c6.523,3.222,11.021,9.644,12.717,16.622c2.198,8.926,1.901,18.228,1.423,27.336c8.368-1.23,17.51-2.152,24.17-7.958
			c6.501-5.339,9.291-13.559,13.867-20.345c1.195-2.3,4.019-2.322,6.25-2.891c17.453-3.359,35.271-0.718,52.873-0.774
			c1.229,6.979,0.819,14.322-2.164,20.823c-14.105,34.474-27.597,69.187-40.701,104.036c-2.026,5.829-3.974,13.298,0.512,18.478
			c3.029,3.45,7.878,2.197,11.806,1.548c12.831-2.573,23.874-9.973,35.328-15.881c13.787-34.429,28.645-68.413,42.5-102.818
			c2.869-6.763,5.146-13.776,8.379-20.379c1.229-2.231,2.607-5.169,5.488-5.454c18.967-1.992,38.071-0.569,57.084-0.035
			c2.846,3.655,5.123,7.97,5.135,12.729c0.216,9.654-4.588,18.33-7.605,27.232c12.216-12.819,25.32-25.434,41.555-33.027
			c10.941-5.26,23.146-7.4,35.202-7.913c11.567-0.331,24.022,2.425,32.437,10.872c8.447,7.537,12.466,19.127,12.067,30.296
			c-0.33,6.057-2.026,11.909-3.643,17.726c-6.569,22.349-17.692,42.944-26.869,64.269c-3.29,7.423-4.041,15.609-4.394,23.635
			c19.001,0.16,36.5-9.028,52.166-18.819c13.252-37.286,27.438-74.276,43.309-110.548c2.357-4.998,4.326-10.542,8.664-14.231
			c3.495-2.994,8.414-2.448,12.706-2.835c14.664-0.933,29.339,0.194,44.015,0.319c0.683,6.546,1.479,13.423-0.763,19.776
			c-12.433,33.631-26.55,66.625-38.618,100.404c-1.274,3.655-2.903,7.286-3.142,11.203c-0.091,5.351,1.764,10.463,3.426,15.472
			c12.672-2.015,25.298-5.59,36.569-11.806c5.738-20.402,15.006-39.666,26.436-57.483c10.451-17.749,24.887-32.857,40.564-46.063
			c24.842-20.652,56.914-34.576,89.691-31.73c8.869,1.161,15.506,8.049,20.049,15.278c2.026-3.551,4.167-7.058,6.341-10.542
			c13.468,0.091,26.925-0.706,40.383-0.148c5.055,0.239,10.121,0.091,15.187,0.171c-3.734,22.394-13.878,42.91-22.189,63.824
			c-4.395,10.577-7.207,21.733-12.113,32.094c-6.353,14.197-13.207,29.703-9.598,45.596c18.683-0.125,36.227-8.288,51.438-18.58
			c11.783-7.753,22.656-16.782,33.916-25.252c3.859,4.247,7.844,8.391,11.829,12.535c-30.067,27.198-62.799,52.211-99.812,69.209
			c-13.343,5.863-27.756,10.372-42.478,9.7c-9.268-0.581-19.297-4.36-23.954-12.911c-5.351-8.675-4.406-19.309-3.279-28.975
			c-12.216,12.717-25.741,24.512-41.578,32.493c-13.627,7.059-29.236,11.032-44.605,9.177c-6.831-0.809-13.822-2.187-19.617-6.068
			c-9.393-5.898-15.335-16.007-18.09-26.55c-16.372,10.247-32.584,21.245-50.902,27.757c-12.683,4.588-26.618,6.341-39.893,3.563
			c-6.49-1.503-11.909-6.147-15.006-11.943c-4.03-7.104-5.248-15.335-6.068-23.328c-17.34,11.453-34.838,23.123-54.409,30.478
			c-12.148,4.508-25.207,7.696-38.231,5.955c-6.934-1.014-14.095-4.224-17.829-10.406c-5.658-9.313-7.104-20.641-5.943-31.309
			c0.843-8.846,3.621-17.328,6.41-25.708c8.094-23.726,19.251-46.223,28.28-69.573c2.3-5.84,1.605-12.193,1.332-18.295
			c-5.646,0.034-11.738-0.273-16.712,2.88c-22.065,13.639-37.616,35.009-52.349,55.855c-6.136,9.04-13.149,17.521-18.42,27.13
			c-10.69,18.865-17.669,39.733-30.011,57.676c-4.337,5.283-11.123,7.97-17.669,9.268c-13.047,2.402-26.208-0.49-39.278-0.899
			c-1.913-8.834-1.686-17.988-0.604-26.914c-17.566,11.203-35.68,22.212-55.923,27.813c-9.017,2.345-18.546,4.498-27.813,2.254
			c-9.313-1.845-18.489-8.026-21.244-17.476c-3.837-13.662-1.617-28.166,2.14-41.589c5.294-18.739,12.546-36.841,19.195-55.126
			c2.823-7.389,5.624-14.8,8.675-22.098c-9.029,5.669-19.229,8.971-28.907,13.32c-11.362,18.341-25.195,36.057-44.208,46.94
			c-16.109,9.495-36.261,10.053-53.771,4.315c-15.825,26.618-38.834,49.672-67.41,62.275c-16.36,7.423-34.451,9.882-52.257,10.304
			c-14.277-0.114-29.259-2.607-41.1-11.1c-11.283-8.243-17.476-21.518-21.017-34.679c-18.535,15.495-38.732,29.418-61.365,38.185
			c5.601,24.057,7.913,49.036,5.055,73.638c-2.22,19.73-7.98,39.142-17.578,56.572c-8.949,16.167-19.73,31.491-33.108,44.322
			c-11.476,10.679-24.933,19.935-40.246,23.954c-6.785-0.114-14.88,1.98-20.276-3.393c-8.414-8.004-8.573-20.664-8.562-31.468
			c3.302-65.35,18.99-129.197,35.475-192.27c-19.605,12.569-39.346,25.708-61.82,32.572c-10.087,3.291-21.051,4.691-31.491,2.391
			c-6.956-1.674-13.947-5.42-17.51-11.863c-4.509-7.821-5.021-17.066-6.046-25.81c-23.168,18.557-49.718,35.202-79.865,38.447
			c-9.495,1.309-20.8,0.205-27.312-7.697c-8.357-10.053-8.914-23.738-10.759-36.09c-19.104,13.673-38.959,26.652-60.784,35.567
			c-11.692,4.838-24.159,8.425-36.887,8.516c-9.541-0.034-20.231-3.426-25.172-12.205c-5.032-9.085-4.258-19.924-3.29-29.886
			c-15.313,16.144-33.472,30.228-54.614,37.787c-12.74,4.395-26.812,6.216-39.996,2.732c-8.14-2.152-16.155-6.308-21.142-13.286
			c-4.019-5.727-6.285-12.444-8.357-19.07c-22.007,12.204-43.991,25.479-68.742,31.297c-15.051,3.677-30.831,3.166-46.007,0.535
			c-15.483-2.767-30.728-9.461-41.498-21.21c-12.694-13.332-17.578-31.969-19.753-49.764c-0.137-12.489-0.251-25.001,0.068-37.479
			c5.841-43.912,24.876-85.08,49.479-121.545c19.617-28.736,42.159-55.514,67.32-79.547
			C218.568,99.14,254.067,72.579,293.003,52.234z M915.978,115.113c-8.96,14.356-17.704,28.872-25.332,44.003
			c-22.907,43.957-42.113,89.85-57.323,137.029c9.836-16.337,21.518-31.457,31.718-47.566
			c23.897-37.331,47.236-75.254,65.122-115.91c7.139-16.053,13.468-33.04,13.639-50.846
			C932.566,91.091,923.731,102.875,915.978,115.113z M664.313,111.652c-31.684,46.986-56.777,98.252-76.416,151.352
			c-3.996,10.36-7.616,20.971-9.062,32.026c29.02-43.309,58.177-86.696,82.347-132.965c9.302-18.079,18.444-36.352,25.081-55.626
			c2.767-7.924,4.383-16.315,4.053-24.74C679.022,89.132,671.793,100.734,664.313,111.652z M979.643,282.313
			c-10.337,9.017-18.216,20.561-24.421,32.709c-8.311,15.928-14.664,32.869-18.842,50.333c-2.277,10.019-4.418,20.243-3.598,30.58
			c0.342,6.979,2.243,14.778,8.333,18.968c6.216,1.651,12.854-0.524,18.421-3.37c11.51-6.137,18.706-17.51,25.172-28.406
			c19.07-33.221,27.603-109.586,20.436-110.371C996.657,270.125,987.225,275.642,979.643,282.313z M1748.857,285.421
			c-23.533,18.546-36.58,46.405-48.808,72.989c-3.746,8.709-6.888,18.513-4.383,27.996c1.275,4.759,4.099,9.825,9.245,11.112
			c8.869,2.516,17.453-2.482,24.455-7.435c21.142-14.789,35.373-37.411,44.606-61.125c3.609-9.256,6.661-18.729,9.336-28.292
			c2.163-7.4,0.729-15.165-0.216-22.634c-2.391-1.264-4.725-2.55-7.059-3.859C1766.208,275.516,1756.406,278.772,1748.857,285.421z
			 M388.91,276.04c-11.43,3.951-21.278,11.533-29.328,20.425c-12.023,13.4-20.493,29.453-28.52,45.449
			c-4.918,11.123-11.191,22.086-12.398,34.405c-0.319,6.091,0.023,13.024,4.338,17.795c5.932,5.783,15.677,4.85,22.303,0.74
			c26.55-16.565,46.246-43.445,54.83-73.468c2.994-9.984,8.151-19.582,8.231-30.227c-0.023-4.816-0.797-10.099-4.076-13.822
			C400.102,273.569,393.875,274.856,388.91,276.04z M788.887,442.613c-9.381,41.692-19.013,83.463-23.453,126.043
			c7.913-5.124,11.977-13.89,15.973-22.064c6.273-13.662,11.59-27.939,13.753-42.875
			C797.882,483.167,793.202,462.605,788.887,442.613z"/>
	</g>
	<path fill="#16167A" d="M749.78,122.229c15.563-4.133,33.233,6.41,36.648,22.212c5.477,22.531-15.916,46.075-38.686,44.128
		c-16.873-1.958-29.852-19.617-27.165-36.296C723.128,137.576,735.469,125.678,749.78,122.229z"/>
	<path fill="#16167A" d="M1645.698,122.126c15.461-3.757,34.053,6.49,36.125,22.964c4.122,19.673-10.907,40.837-30.808,43.457
		c-16.52,2.356-32.8-11.943-33.438-28.451C1615.334,142.585,1629.11,126.133,1645.698,122.126z"/>
</g>
</svg>
